<svg xmlns="http://www.w3.org/2000/svg" width="389" height="286"><g fill="none" fill-rule="evenodd"><path fill="#230545" d="M152.828 203.828a4 4 0 1 0-5.658-5.657 4 4 0 0 0 5.658 5.657"/><path fill="#230545" d="M123 172.588v5.44l25.745 25.365 2.738-2.738z"/><path stroke="#230545" stroke-width="3" d="M127 201.5h3.5a6 6 0 0 1 6 6v4a6 6 0 0 0 6 6h5a6 6 0 0 1 6 6 6 6 0 0 0 6 6h.25a6 6 0 0 0 6-6 6 6 0 0 1 6-6h24.75a6 6 0 0 0 6-6V202m-165 16v17.5a6 6 0 0 0 6 6h1a6 6 0 0 0 6-6 6 6 0 0 1 6-6H81"/><path fill="#E5E5E5" d="M104 3v89c0 3.313-3.007 6-6.714 6H16.714C13.007 98 10 95.313 10 92V3h94z"/><path fill="#FFF" d="M6 69V53h18.573c2.508 0 4.613 1.923 4.82 4.422.147 1.772-.277 1.734-1.035 3.578h4.703c4.706 0 8.543 3.2 8.814 8H6zm16.813-56H93.43v-3H22.813v3zm0 8H93.43v-3H22.813v3zm-3.362-11v3H6v5h13.45v3H6v5h102v-5H96.791v-3H108v-5H96.791v-3H108V6H96.791V0H93.43v6H22.813V0h-3.362v6H6v4h13.45z"/><path fill="#7CB5E0" d="M191 199c0-6.627-5.373-12-12-12h-26c-6.627 0-12 5.373-12 12 0 2.616.846 5.028 2.267 7h45.466a11.935 11.935 0 0 0 2.267-7"/><path fill="#4495D4" d="M143.267 206c2.179 3.024 5.722 5 9.733 5h26c4.012 0 7.555-1.976 9.734-5h-45.467z"/><path fill="#FFF" d="M150 201c-1.1 0-2-.9-2-2s.9-2 2-2 2 .9 2 2-.9 2-2 2m8 0c-1.1 0-2-.9-2-2s.9-2 2-2 2 .9 2 2-.9 2-2 2"/><path fill="#357DB6" d="M191.256 199.234c0-6.415-5.198-11.613-11.613-11.613-6.414 0-11.613 5.198-11.613 11.613 0 6.415 5.199 11.613 11.613 11.613 6.415 0 11.613-5.198 11.613-11.613"/><path fill="#4495D4" d="M188.16 199.234a8.517 8.517 0 1 0-17.034 0 8.517 8.517 0 1 0 17.033 0"/><path fill="#230545" d="M179 201h20v-4h-20z"/><path fill="#230545" d="M183.951 199.633a4.003 4.003 0 0 0-4.584-4.584c-1.684.258-3.06 1.634-3.319 3.318a4.005 4.005 0 0 0 4.585 4.585c1.684-.258 3.06-1.635 3.318-3.32"/><path stroke="#230545" stroke-width="3" d="M45 114.5H27.5a6 6 0 0 0-6 6v24a6 6 0 0 0 6 6h18a6 6 0 0 1 6 6v1.5"/><path fill="#230545" d="M51 154c-5.522 0-10 4.478-10 10 0 5.523 4.478 10 10 10 5.523 0 10-4.477 10-10 0-5.522-4.477-10-10-10"/><path fill="#357DB6" d="M63.847 162.607c-.6-2.733-3.077-4.607-5.813-4.607H31.572c3.237 0 5.86 2.686 5.86 6s-2.623 6-5.86 6h26.567c3.682 0 6.569-3.473 5.708-7.393"/><path fill="#4495D4" d="M34.1 158h-2.134c-2.736 0-5.213 1.874-5.813 4.607-.86 3.92 2.027 7.393 5.707 7.393h2.345c3.681 0 6.568-3.473 5.707-7.393-.6-2.733-3.077-4.607-5.813-4.607"/><path fill="#230545" d="M28 220h30.709A9.291 9.291 0 0 0 68 210.709v-39.418A9.291 9.291 0 0 0 58.709 162H28v58z"/><path fill="#544463" d="M39 210.71v-39.42a9.29 9.29 0 0 0-9.291-9.29h-1.418A9.29 9.29 0 0 0 19 171.29v39.42a9.291 9.291 0 0 0 9.291 9.29h1.418A9.291 9.291 0 0 0 39 210.71m42.294 4.244H68.031l7.566 28.236H88.86z"/><path fill="#230545" d="M97.722 214.954H74.67l7.566 28.236h23.051z"/><path fill="#4495D4" d="M123.71 224H72.29a9.29 9.29 0 0 1-9.29-9.291v-45.418A9.29 9.29 0 0 1 72.29 160h51.42a9.291 9.291 0 0 1 9.29 9.291v45.418a9.291 9.291 0 0 1-9.29 9.291"/><path fill="#7CB5E0" d="M75 224H63c-4.971 0-9-4.175-9-9.326v-45.348c0-5.151 4.029-9.326 9-9.326h12c4.971 0 9 4.175 9 9.326v45.348c0 5.151-4.029 9.326-9 9.326"/><path fill="#230545" d="M115 160v2.4c0 5.302-4.03 9.6-9 9.6h5.709a9.291 9.291 0 0 0 9.291-9.291V160h-6z"/><path fill="#544463" d="M116 162.71V160H95v2.71a9.291 9.291 0 0 0 9.291 9.29h2.418a9.291 9.291 0 0 0 9.291-9.29"/><path fill="#DE5833" d="M71.252 197.363a2.324 2.324 0 0 0-4.646 0 2.324 2.324 0 0 0 4.646 0m0 8.517a2.324 2.324 0 0 0-4.646 0 2.323 2.323 0 0 0 4.646 0"/><path fill="#4495D4" d="M75.136 166H62.864C60.73 166 59 167.64 59 169.664v42.672c0 2.024 1.73 3.664 3.864 3.664h12.272c2.134 0 3.864-1.64 3.864-3.664v-42.672c0-2.024-1.73-3.664-3.864-3.664"/><path fill="#230545" d="M70 199a2 2 0 1 0-4.001.001A2 2 0 0 0 70 199m0 10a2 2 0 1 0-4.001.001A2 2 0 0 0 70 209"/><path fill="#544463" d="M125.668 208.578a6.376 6.376 0 0 1-6.377 6.376H97.54a6.376 6.376 0 0 1 0-12.752h21.752a6.376 6.376 0 0 1 6.377 6.376"/><path fill="#230545" d="M97.094 207.667h22.641c2.69 0 5 1.603 6.043 3.904.661-1.462.827-3.196.204-5.006-.918-2.665-3.542-4.363-6.36-4.363H97.206c-2.818 0-5.443 1.7-6.36 4.363-.622 1.81-.457 3.544.204 5.006a6.634 6.634 0 0 1 6.043-3.904"/><path fill="#357DB6" d="M75.136 165H62.864C60.73 165 59 166.522 59 168.4v3.933c0-1.837 1.725-3.333 3.846-3.333h12.308c2.12 0 3.846 1.496 3.846 3.333V168.4c0-1.878-1.73-3.4-3.864-3.4"/><path fill="#544463" d="M49.54 197H54v-14h-4.46c-1.956 0-3.54 1.493-3.54 3.335v7.33c0 1.842 1.584 3.335 3.54 3.335"/><path fill="#230545" d="M53.54 197H54v-14h-.46c-1.956 0-3.54 1.493-3.54 3.335v7.33c0 1.842 1.584 3.335 3.54 3.335"/><path fill="#357DB6" d="M91.454 182.751c-1.03 2.462-1.167 5.38-.148 8.281 2.194 6.244 8.858 10.008 14.884 8.407 2.06-.546 15.283-4.056 26.81-7.117v-20.6l-41.546 11.03"/><path fill="#230545" d="M173.893 158.015l-27.552 11.87 1.766 4.1 27.552-11.869z"/><path fill="#7CB5E0" d="M148.503 159.39l-45.75 11.724c-3.326.853-5.935 3.07-7.406 5.892l62.482-16.012c-2.647-1.77-6-2.457-9.326-1.604"/><path fill="#4495D4" d="M94.387 185.247c1.593 6.214 7.92 9.96 14.132 8.367l45.749-11.724c6.214-1.594 9.96-7.92 8.367-14.134a11.557 11.557 0 0 0-4.806-6.763l-62.482 16.013a11.563 11.563 0 0 0-.96 8.241"/><path fill="#7CB5E0" d="M114.996 183.393c.587-5.958-3.767-11.262-9.725-11.849-5.957-.587-11.262 3.766-11.85 9.724-.586 5.958 3.768 11.263 9.726 11.85 5.957.587 11.262-3.767 11.849-9.725"/><path fill="#4495D4" d="M111.914 183.09a7.741 7.741 0 0 0-6.946-8.464 7.741 7.741 0 0 0-8.464 6.946 7.741 7.741 0 0 0 6.946 8.464 7.741 7.741 0 0 0 8.464-6.946"/><path fill="#230545" d="M108 182a4 4 0 1 0-8 0 4 4 0 0 0 8 0m-32.876-.347a6.194 6.194 0 1 0-12.388 0 6.194 6.194 0 0 0 12.388 0"/><path fill="#230545" d="M72 184h30v-4H72zm134.895-4s6.785 7.958 7.792 11.603c1.655 5.989-3.63 5.614-4.675 5.614h-14.024c-1.046 0-6.33.375-4.675-5.614 1.007-3.645 7.792-11.603 7.792-11.603h-4.791s-6.875 8.064-7.897 11.759c-2.346 8.495 5.804 10.241 9.476 10.241h14.214c3.672 0 11.822-1.746 9.476-10.241-1.022-3.695-7.897-11.759-7.897-11.759h-4.79z"/><path fill="#230545" d="M210 203a7 7 0 1 0-14 0 7 7 0 0 0 14 0"/><path fill="#4495D4" d="M207 203a4 4 0 1 0-8 0 4 4 0 0 0 8 0"/><path fill="#FFF" d="M205 203a2 2 0 1 0-4.001.001A2 2 0 0 0 205 203"/><path fill="#DE5833" d="M203 167s-5 3.521-5 9.017a4.1 4.1 0 0 0 .432 1.832c.214.435 1.886 3.151 4.568 3.151 2.682 0 4.353-2.714 4.567-3.151a4.1 4.1 0 0 0 .433-1.832c0-5.496-5-9.017-5-9.017"/><path fill="#FFB652" d="M204.577 173.165c-.854-1.582-1.577-1.958-1.577-1.958s-.723.376-1.577 1.958c-1.79 3.318.545 5.029 1.577 5.029 1.03 0 3.368-1.711 1.577-5.029"/><path fill="#230545" d="M196 180v8.167c0 3.222 3.134 5.833 7 5.833s7-2.611 7-5.833V180h-14z"/><path fill="#FFF" d="M127.245 173.885a1.552 1.552 0 0 1-.925 1.985l-.728.265a1.551 1.551 0 0 1-1.984-.926l-.265-.727c-.291-.8.125-1.694.925-1.984l.727-.266a1.553 1.553 0 0 1 1.985.926l.265.727zm7.275-2.649a1.552 1.552 0 0 1-.926 1.985l-.726.265a1.553 1.553 0 0 1-1.985-.925l-.264-.728c-.292-.8.125-1.693.925-1.984l.727-.265c.8-.29 1.693.125 1.984.925l.265.727z"/><path fill="#230545" d="M29 213c-1.65 0-3-1.35-3-3v-38c0-1.65 1.35-3 3-3s3 1.35 3 3v38c0 1.65-1.35 3-3 3m133.857 48.157L136.9 235.2c-2.236-2.236-4.994-4.2-8.4-4.2H84.4c-2.023 0-3.78.824-5.508 1.574L17.237 259.38c-4.988 2.075-8.893 6.519-7.423 12.7 1.119 4.704 5.485 7.92 10.32 7.92h138.538c4.828 0 8.328-4.746 8.328-9.8v-.727c-.245-3.158-2.066-6.24-4.143-8.316"/><path fill="#9C452D" d="M166.922 269.292l.003.031-.003-.031"/><path fill="#544463" d="M22.3 276c-3.377 0-6.393-2.351-6.983-5.676-.867-4.882 3.576-7.256 5.388-8.009l61.13-26.578c1.383-.603 2.41-.719 3.559-.719 1.979 0 4.054.591 5.838 2.551l.11.118 25.634 25.633c2.126 2.125 3.074 3.909 3.074 5.783 0 3.124-2.77 6.897-6.208 6.897H22.3zm123.609-14.843l-26.014-26.014c-1.92-2.513-4.937-4.143-8.343-4.143h-8.4c3.406 0 6.424 1.63 8.343 4.143l26.014 26.014c2.513 1.918 4.143 4.937 4.143 8.343 0 5.054-3.571 9.27-8.327 10.273l-.073.227h8.4l.072-.227c4.757-1.002 8.328-5.22 8.328-10.273 0-3.406-1.63-6.425-4.143-8.343"/><path fill="#230545" d="M25.217 265.232l-.047.02c-.909.385-4.32 2.056-2.773 4.85.666 1.203 1.97 1.898 3.324 1.898h85.687c1.251 0 2.592-1.937 2.592-3.3 0-.303 0-1.226-1.938-3.2l-24.076-24.527-.109-.11-.103-.115c-.712-.798-1.798-1.748-2.929-1.748-.404 0-1.403.443-2.207.8l-.317.14-57.057 25.271-.047.021z"/><path fill="#544463" d="M36.59 267c-2.275 0-2.43-.742-.342-1.65l45.145-19.629c2.088-.908 5.113-.333 6.722 1.276l17.076 17.077c1.61 1.609 1.065 2.926-1.212 2.926H36.59z"/><path fill="#230545" d="M86 251.5a2.5 2.5 0 1 0-5 0 2.5 2.5 0 0 0 5 0M99 263a2 2 0 1 0-3.999-.001A2 2 0 0 0 99 263m-44 0a2 2 0 1 0-3.999-.001A2 2 0 0 0 55 263"/><path fill="#544463" d="M167 269.333c.335-.306.287-.61.242-1.333h-48.975l.001.428c0 .868-.18 1.782-.5 2.572h49.552c.023-.227.037-.547-.32-.868v-.799zM110.057 258h49.728l-2.673-3h-49.728zm-14.255-14h49.728l-2.673-3H93.13z"/><path fill="#230545" d="M201 199h4v-8h-4z"/><path fill="silver" d="M180 283.11v-.22a2.884 2.884 0 0 0-2.878-2.89H2.878A2.884 2.884 0 0 0 0 282.89v.22A2.884 2.884 0 0 0 2.878 286h174.244a2.884 2.884 0 0 0 2.878-2.89"/><path fill="#DE5833" d="M252.493 74.092s-3.328 2.488-4.18 4.566c-1.637-5.377-9.464-12.918-9.464-12.918s-3.76 1.769-5.969 4.532c-3.602-9.36-13.429-18.534-13.429-18.534s-12.572 11.648-15.66 20.958a99.673 99.673 0 0 0-3.735-3.895s-5.625 4.48-6.856 9.196c-2.088-3.067-6.258-4.2-6.258-4.2S178 79.536 178 91.74V148c0 5.523 4.477 10 10 10h61c5.522 0 10-4.477 10-10V91.74c0-12.853-6.507-17.648-6.507-17.648"/><path fill="#FFF" d="M183 96v47.598a8.402 8.402 0 0 0 8.402 8.402h53.582a8.016 8.016 0 0 0 8.016-8.016V96h-70z"/><path fill="#230545" d="M244.527 83h-53.512A8.016 8.016 0 0 0 183 91.016V96h70v-4.527c0-4.66-3.813-8.473-8.473-8.473"/><path fill="#6FBF5C" d="M202.94 133.234c-4.496-6.116-4.35-14.676.424-20.577 6.11-7.552 17.026-8.276 23.992-2.37a1.486 1.486 0 0 0 2.01-.091l.863-.863a1.512 1.512 0 0 0-.095-2.22c-8.06-6.843-20.698-6.631-28.534 1.204-8.237 8.238-8.19 21.64.047 29.878 7.715 7.715 19.96 8.244 28.25 1.514l-2.919-3.085a16.876 16.876 0 0 1-24.038-3.39"/><path fill="#6FBF5C" d="M233 141.086V134a1 1 0 0 0-1-1h-7.086c-.891 0-1.337 1.077-.707 1.707l7.086 7.086c.63.63 1.707.184 1.707-.707"/><path fill="#230545" d="M223.5 123H217v-8.5a1.5 1.5 0 1 0-3 0V125a1 1 0 0 0 1 1h8.5a1.5 1.5 0 1 0 0-3m11.5-9a6 6 0 0 0 0 12 6 6 0 0 0 0-12"/><path fill="#230545" d="M241.382 128.137l-6.52-6.52a1.24 1.24 0 0 1 1.756-1.753l6.519 6.519a1.24 1.24 0 0 1-1.755 1.754"/><path fill="#FFF" d="M235 123a3.001 3.001 0 0 1 0-6 3.001 3.001 0 0 1 0 6"/><path fill="#6FBF5C" d="M205 88a2 2 0 1 0 .001 4.001A2 2 0 0 0 205 88"/><path fill="#FFB652" d="M197 88a2 2 0 1 0 .001 4.001A2 2 0 0 0 197 88"/><path fill="#DE5833" d="M189 88a2 2 0 1 0 .001 4.001A2 2 0 0 0 189 88m72.5-24c-.825 0-1.5-.675-1.5-1.5v-5c0-.825.675-1.5 1.5-1.5s1.5.675 1.5 1.5v5c0 .825-.675 1.5-1.5 1.5m-71-24c-.825 0-1.5-.675-1.5-1.5v-5c0-.825.675-1.5 1.5-1.5s1.5.675 1.5 1.5v5c0 .825-.675 1.5-1.5 1.5M217 27c-1.65 0-3-1.35-3-3v-6c0-1.65 1.35-3 3-3s3 1.35 3 3v6c0 1.65-1.35 3-3 3"/><path fill="#FFB652" d="M206 41c-1.1 0-2-.9-2-2v-1c0-1.1.9-2 2-2s2 .9 2 2v1c0 1.1-.9 2-2 2m29 6c-1.1 0-2-.9-2-2v-1c0-1.1.9-2 2-2s2 .9 2 2v1c0 1.1-.9 2-2 2m-45 11c-1.1 0-2-.9-2-2v-1c0-1.1.9-2 2-2s2 .9 2 2v1c0 1.1-.9 2-2 2m59-22c-1.1 0-2-.9-2-2v-2c0-1.1.9-2 2-2s2 .9 2 2v2c0 1.1-.9 2-2 2"/><path fill="#9C452D" d="M209.86 151.096l-3.536-3.536-10.44 10.44h7.072z"/><path fill="#230545" d="M195.885 158l-4.051 4.051a3.87 3.87 0 0 1-5.474 0L182.308 158H176h6.308l-8.86-8.859a3.87 3.87 0 0 1 0-5.474l13.067-13.066-3.536-3.536-13.317 13.317a8.518 8.518 0 0 0 0 12.044l13.412 13.412a8.516 8.516 0 0 0 12.044 0l7.838-7.838h-7.071z"/><path fill="#230545" d="M183.852 160.566a8.013 8.013 0 0 0-9.417-9.417c-3.15.597-5.69 3.136-6.286 6.285a8.014 8.014 0 0 0 9.417 9.418c3.149-.598 5.689-3.137 6.286-6.286"/><path fill="#4495D4" d="M181 159a5 5 0 0 0-5-5 5 5 0 0 0-5 5 5 5 0 0 0 5 5 5 5 0 0 0 5-5"/><path fill="#FFF" d="M178 159a2 2 0 1 0-4.001.001A2 2 0 0 0 178 159m17-7h19v-7h-19z"/><path fill="#FFB652" d="M244.148 83c-1.732-4.688-5.725-7.116-5.725-7.116s-1.618 1.16-3.748 3.216c-1.469 1.419-3.913.96-4.782-.889-3.936-8.379-10.3-13.908-10.3-13.908s-7.549 7.876-11.693 14.924c-.968 1.646-3.187 2.011-4.602.728-1.034-.936-1.849-1.652-1.849-1.652s-3.006 1.95-5.102 4.697h47.801z"/><path fill="silver" d="M300 185.962c-2.914-3.595-10.943-5.749-18.08-5.749-10.017 0-18.232 4.23-23.352 10.787H300v-5.038z"/><path fill="silver" d="M298.663 186.73c1.854-6.887 4.51-12.569 9.553-17.486 7.08-6.904 16.958-10.475 25.274-9.427l-31.216 30.433-3.61-3.52z"/><path fill="silver" d="M298.086 185.664c7.062 1.808 12.888 4.396 17.937 9.313 7.078 6.904 10.742 16.535 9.665 24.643l-31.215-30.434 3.613-3.522z"/><path fill="#E5E5E5" d="M300.238 185.664c-.939-5.998-3.959-12.034-9.007-16.952-7.079-6.905-16.41-9.94-24.727-8.89l30.122 29.364 3.612-3.522z"/><path fill="silver" d="M307 201h-19.304l12.417-12.463 6.887 2.761z"/><path fill="#E5E5E5" d="M300.477 201H282l.878 3.024 3.198 11.019L290.124 229h17.989L316 201z"/><path fill="silver" d="M282 199l3 11 19-11z"/><path fill="#E5E5E5" d="M298.816 186.73c-6.153.916-12.343 3.86-17.392 8.78-7.082 6.903-10.19 15.998-9.114 24.105l30.114-29.365-3.608-3.52z"/><path fill="#E5E5E5" d="M294 185.962c9.471-3.595 14.222-5.749 21.358-5.749 10.014 0 21.507 4.23 26.632 10.787H294v-5.038zM310 280h6v-45h-6z"/><path fill="silver" d="M330 280h6v-45h-6zm-66 0h6v-45h-6z"/><path fill="#E5E5E5" d="M244 280h6v-45h-6z"/><path fill="silver" d="M270 235h76v-8h-76z"/><path fill="#E5E5E5" d="M234 235h36v-8h-36zm112 48.11v-.22a2.885 2.885 0 0 0-2.879-2.89H236.879a2.885 2.885 0 0 0-2.879 2.89v.22a2.885 2.885 0 0 0 2.879 2.89h106.242a2.885 2.885 0 0 0 2.879-2.89M247 227h15v-26h-15z"/><path fill="silver" d="M253 210h-.91a2.09 2.09 0 0 0-2.09 2.09V224h9v-16c-3 0-3 2-6 2"/><path fill="#E5E5E5" d="M316 83h-24a3 3 0 0 0-3 3v6a3 3 0 0 0 3 3h24a3 3 0 0 0 3-3v-6a3 3 0 0 0-3-3m19 19h-24a3 3 0 0 0-3 3v6a3 3 0 0 0 3 3h24a3 3 0 0 0 3-3v-6a3 3 0 0 0-3-3"/><path fill="#230545" d="M48 105c-5.522 0-10 4.478-10 10 0 5.523 4.478 10 10 10 5.523 0 10-4.477 10-10 0-5.522-4.477-10-10-10m43-32h3V60h-3z"/><path fill="#230545" d="M99.437 71H74.563C72.053 71 70 72.913 70 75.25v1.5c0 2.337 2.053 4.25 4.563 4.25h24.874c2.51 0 4.563-1.913 4.563-4.25v-1.5c0-2.337-2.053-4.25-4.563-4.25"/><path fill="#544463" d="M81.631 76.75v-1.5c0-2.337-2.053-4.25-4.563-4.25h-2.505C72.053 71 70 72.913 70 75.25v1.5c0 2.337 2.053 4.25 4.563 4.25h2.505c2.51 0 4.563-1.913 4.563-4.25"/><path fill="#4495D4" d="M84.07 77H64.915c-2.712 0-5.167 1.562-5.762 3.839C58.299 84.106 61.16 87 64.81 87h19.365c3.649 0 6.512-2.894 5.658-6.161C89.238 78.562 86.783 77 84.07 77"/><path fill="#357DB6" d="M118.848 80.839c-.595-2.277-3.05-3.84-5.762-3.84H72.91c3.21 0 5.81 2.239 5.81 5 0 2.763-2.6 5-5.81 5h40.28c3.65 0 6.512-2.893 5.658-6.16"/><path fill="#544463" d="M91.054 139.353H75.791L70.26 160h15.263z"/><path fill="#230545" d="M100.705 139.353h-19.5L75.673 160h19.5z"/><path fill="#7CB5E0" d="M107.35 84h-56.7C46.442 84 43 87.477 43 91.727v44.546c0 4.25 3.442 7.727 7.65 7.727h56.7c4.208 0 7.65-3.477 7.65-7.727V91.727c0-4.25-3.442-7.727-7.65-7.727"/><path fill="#4495D4" d="M155 114.136C155 97.492 141.65 84 125.183 84H53c.254 0 .506.013.755.038 15.811.796 28.388 13.906 28.388 29.962v22.307c0 4.231-3.451 7.693-7.669 7.693h72.88c4.206 0 7.646-3.477 7.646-7.727v-22.137z"/><path fill="#7CB5E0" d="M137.243 144c4.035 0 7.381-4.064 7.776-8h-26.793c-.396 3.936-3.742 8-7.776 8h26.793z"/><path fill="#357DB6" d="M155 124h-12v11.294c0 .239-.014.474-.041.706H155v-12zm-37 0H91v4.714c0 4.007 3.561 7.286 7.914 7.286h19.046l.04-.04V124z"/><path fill="#4495D4" d="M118 136h27v-12h-27zm-52.742-33h-7.516A7.742 7.742 0 0 0 50 110.742v8.516A7.742 7.742 0 0 0 57.742 127h7.516A7.742 7.742 0 0 0 73 119.258v-8.516A7.742 7.742 0 0 0 65.258 103"/><path fill="#357DB6" d="M66 119.258c0 4.275-3.581 7.742-8 7.742-4.419 0-8-3.467-8-7.742v-8.517c0-4.275 3.581-7.742 8-7.742 4.419 0 8 3.467 8 7.742v8.517z"/><path fill="#FFB652" d="M93.788 41.458a1.28 1.28 0 0 1-.82-.289c-2.325-1.926-5.332-2.986-8.468-2.986-3.135 0-6.143 1.06-8.467 2.986-.493.41-1.26.381-1.712-.064-.453-.442-.422-1.133.07-1.541C77.166 37.266 80.756 36 84.5 36c3.746 0 7.336 1.266 10.109 3.564.493.408.524 1.099.07 1.541a1.274 1.274 0 0 1-.891.353M90.36 46c-.285 0-.57-.09-.8-.272-1.405-1.113-3.202-1.727-5.06-1.727-1.858 0-3.656.614-5.06 1.727-.502.398-1.268.355-1.71-.099-.443-.453-.394-1.142.11-1.54 1.847-1.463 4.212-2.27 6.66-2.27 2.447 0 4.813.806 6.661 2.27.502.398.551 1.087.11 1.54-.24.245-.575.37-.91.37"/><path fill="#7CB5E0" d="M145.203 92H84c4.84 5.208 7 12.082 7 19.623v12.821C91 128.6 95.296 132 99.584 132h45.619c4.289 0 7.797-3.4 7.797-7.556V99.556C153 95.4 149.492 92 145.203 92"/><path fill="#230545" d="M111 130c-3.309 0-6-2.691-6-6v-24c0-3.309 2.691-6 6-6h45c3.309 0 6 2.691 6 6v24c0 3.309-2.691 6-6 6h-45z"/><path fill="#544463" d="M156 92h-45c-4.4 0-8 3.6-8 8v24c0 4.4 3.6 8 8 8h45c4.4 0 8-3.6 8-8v-24c0-4.4-3.6-8-8-8m0 4c2.206 0 4 1.794 4 4v24c0 2.206-1.794 4-4 4h-45c-2.206 0-4-1.794-4-4v-24c0-2.206 1.794-4 4-4h45"/><path fill="#E5E5E5" d="M131 118c1.122 2.345 3.831 4 7 4 3.17 0 5.879-1.655 7-4h-14z"/><path fill="#82DCFF" d="M126 108a3 3 0 1 0-6 0 3 3 0 0 0 6 0m30 0a3 3 0 1 0-6 0 3 3 0 0 0 6 0"/><path fill="#230545" d="M58.072 122h-.145A2.936 2.936 0 0 1 55 119.072v-8.144A2.936 2.936 0 0 1 57.927 108h.145A2.936 2.936 0 0 1 61 110.928v8.144A2.936 2.936 0 0 1 58.072 122M92.5 56.334a2.5 2.5 0 0 0-2.5 2.5V60.5a2.5 2.5 0 0 0 5 0v-1.666a2.5 2.5 0 0 0-2.5-2.5M83 72h3V53h-3z"/><path fill="#230545" d="M84.5 49.334a2.5 2.5 0 0 0-2.5 2.5V53.5a2.5 2.5 0 0 0 5 0v-1.666a2.5 2.5 0 0 0-2.5-2.5"/></g></svg>