<svg id="SvgjsSvg1055" width="288" height="288" xmlns="http://www.w3.org/2000/svg" version="1.1" xmlns:xlink="http://www.w3.org/1999/xlink" xmlns:svgjs="http://svgjs.com/svgjs"><defs id="SvgjsDefs1056"></defs><g id="SvgjsG1057"><svg xmlns="http://www.w3.org/2000/svg" viewBox="0 0 98.483 92.332" width="288" height="288"><path fill="#007bff" d="M96.553 68.948c-13.167-2.167-19.1-15.653-19.341-16.226a.93.93 0 0 0-.055-.111 4.07 4.07 0 0 1-.457-3.349c.72-1.687 3.478-2.561 5.3-3.139a24.197 24.197 0 0 0 1.44-.486 11.146 11.146 0 0 0 3.927-2.345 3.73 3.73 0 0 0 1.19-2.68c-.031-1.576-1.237-2.979-3.164-3.663a5.719 5.719 0 0 0-2.142-.406 4.77 4.77 0 0 0-1.994.406 11.193 11.193 0 0 1-4.106 1.17 3.769 3.769 0 0 1-1.36-.3c.037-.616.074-1.25.117-1.9l.018-.283c.425-6.666.948-14.958-1.256-19.882a26.745 26.745 0 0 0-6.026-8.624 25.2 25.2 0 0 0-7.208-4.752A28.481 28.481 0 0 0 50.19 0h-.246l-1.693.018a28.589 28.589 0 0 0-11.258 2.376A25.06 25.06 0 0 0 29.81 7.14a26.832 26.832 0 0 0-6 8.605c-2.2 4.918-1.68 13.21-1.262 19.87v.012c.043.714.092 1.459.135 2.185a3.945 3.945 0 0 1-1.613.3 10.68 10.68 0 0 1-4.389-1.176 3.943 3.943 0 0 0-1.668-.345 5.9 5.9 0 0 0-2.948.825 4.08 4.08 0 0 0-2.087 2.665 3.677 3.677 0 0 0 1.4 3.453 12.1 12.1 0 0 0 3.669 2.1c.419.166.917.32 1.44.486 1.822.579 4.586 1.453 5.306 3.139a4.1 4.1 0 0 1-.468 3.349.872.872 0 0 0-.049.111 32.6 32.6 0 0 1-4.961 7.67 27.838 27.838 0 0 1-5.983 5.281 22.017 22.017 0 0 1-8.4 3.269A2.3 2.3 0 0 0 0 71.342a2.917 2.917 0 0 0 .24 1v.006a6.152 6.152 0 0 0 3.34 2.854 38.1 38.1 0 0 0 9.633 2.505 11.686 11.686 0 0 1 .591 2.117c.16.739.326 1.5.566 2.308a2.524 2.524 0 0 0 2.641 1.921 12.856 12.856 0 0 0 2.265-.314 25.759 25.759 0 0 1 5.164-.585 22.444 22.444 0 0 1 3.693.314c2.413.4 4.494 1.865 6.9 3.564 3.521 2.487 7.51 5.3 13.6 5.3q.249 0 .5-.018c.2.012.449.018.708.018 6.094 0 10.083-2.813 13.6-5.294l.006-.006c2.407-1.693 4.487-3.158 6.9-3.558a22.443 22.443 0 0 1 3.693-.314 25.881 25.881 0 0 1 5.164.548 12.48 12.48 0 0 0 2.265.277h.111a2.493 2.493 0 0 0 2.53-1.89c.234-.794.4-1.533.566-2.29a12.091 12.091 0 0 1 .585-2.105 38.364 38.364 0 0 0 9.639-2.505 6.177 6.177 0 0 0 3.33-2.844 2.926 2.926 0 0 0 .246-1.016 2.291 2.291 0 0 0-1.923-2.387Z" class="colorfffc00 svgShape"></path></svg></g></svg>